<mxfile host="drawio-plugin" modified="2021-03-30T20:17:56.952Z" agent="5.0 (Windows NT 6.2; Win64; x64) AppleWebKit/537.36 (KHTML, like Gecko) Chrome/81.0.4044.113 Safari/537.36" etag="HOrLQX7GMAJlpLdH2WeN" version="13.7.9" type="embed"><diagram id="6nXcuJpklStDNOcjZKqY" name="Page-1"><mxGraphModel dx="805" dy="499" grid="1" gridSize="10" guides="1" tooltips="1" connect="1" arrows="1" fold="1" page="1" pageScale="1" pageWidth="850" pageHeight="1100" math="0" shadow="0"><root><mxCell id="0"/><mxCell id="1" parent="0"/><mxCell id="BbQsAO82EBdSkwpl4tn9-2" value="Bid" style="swimlane;fontStyle=1;align=center;verticalAlign=top;childLayout=stackLayout;horizontal=1;startSize=26;horizontalStack=0;resizeParent=1;resizeParentMax=0;resizeLast=0;collapsible=1;marginBottom=0;" parent="1" vertex="1"><mxGeometry x="500" y="440" width="240" height="70" as="geometry"/></mxCell><mxCell id="BbQsAO82EBdSkwpl4tn9-3" value="+ pcMemberId: Integer&#10;+ bidType: BidTypeEnum" style="text;strokeColor=none;fillColor=none;align=left;verticalAlign=top;spacingLeft=4;spacingRight=4;overflow=hidden;rotatable=0;points=[[0,0.5],[1,0.5]];portConstraint=eastwest;" parent="BbQsAO82EBdSkwpl4tn9-2" vertex="1"><mxGeometry y="26" width="240" height="44" as="geometry"/></mxCell><mxCell id="BbQsAO82EBdSkwpl4tn9-10" value="Review" style="swimlane;fontStyle=1;align=center;verticalAlign=top;childLayout=stackLayout;horizontal=1;startSize=26;horizontalStack=0;resizeParent=1;resizeParentMax=0;resizeLast=0;collapsible=1;marginBottom=0;" parent="1" vertex="1"><mxGeometry x="205" y="430" width="190" height="90" as="geometry"/></mxCell><mxCell id="BbQsAO82EBdSkwpl4tn9-11" value="+ proposalId: Integer&#10;+ userId: Integer&#10;+ reviewType: ReviewTypeEnum&#10;+ recommendation: String" style="text;strokeColor=none;fillColor=none;align=left;verticalAlign=top;spacingLeft=4;spacingRight=4;overflow=hidden;rotatable=0;points=[[0,0.5],[1,0.5]];portConstraint=eastwest;" parent="BbQsAO82EBdSkwpl4tn9-10" vertex="1"><mxGeometry y="26" width="190" height="64" as="geometry"/></mxCell><mxCell id="BbQsAO82EBdSkwpl4tn9-15" value="ReviewTypeEnum" style="swimlane;fontStyle=1;align=center;verticalAlign=top;childLayout=stackLayout;horizontal=1;startSize=26;horizontalStack=0;resizeParent=1;resizeParentMax=0;resizeLast=0;collapsible=1;marginBottom=0;" parent="1" vertex="1"><mxGeometry x="220" y="210" width="160" height="140" as="geometry"/></mxCell><mxCell id="BbQsAO82EBdSkwpl4tn9-16" value="+ STRONG_ACCEPT&#10;+ ACCEPT&#10;+ WEAK_ACCEPT&#10;+ BORDERLINE_PAPER&#10;+ WEAK_REJECT&#10;+ REJECT&#10;+ STRONG_REJECT" style="text;strokeColor=none;fillColor=none;align=left;verticalAlign=top;spacingLeft=4;spacingRight=4;overflow=hidden;rotatable=0;points=[[0,0.5],[1,0.5]];portConstraint=eastwest;" parent="BbQsAO82EBdSkwpl4tn9-15" vertex="1"><mxGeometry y="26" width="160" height="114" as="geometry"/></mxCell><mxCell id="BbQsAO82EBdSkwpl4tn9-19" value="Use" style="endArrow=open;endSize=12;dashed=1;html=1;" parent="1" source="BbQsAO82EBdSkwpl4tn9-10" target="BbQsAO82EBdSkwpl4tn9-15" edge="1"><mxGeometry width="160" relative="1" as="geometry"><mxPoint x="150" y="400" as="sourcePoint"/><mxPoint x="310" y="400" as="targetPoint"/></mxGeometry></mxCell><mxCell id="BbQsAO82EBdSkwpl4tn9-22" value="BidTypeEnum" style="swimlane;fontStyle=1;align=center;verticalAlign=top;childLayout=stackLayout;horizontal=1;startSize=26;horizontalStack=0;resizeParent=1;resizeParentMax=0;resizeLast=0;collapsible=1;marginBottom=0;" parent="1" vertex="1"><mxGeometry x="540" y="210" width="160" height="110" as="geometry"/></mxCell><mxCell id="BbQsAO82EBdSkwpl4tn9-23" value="+ PLEASED_TO_REVIEW&#10;+ COULD_REVIEW&#10;+ REFUSE_TO_REVIEW&#10;+ IN_CONFLICT" style="text;strokeColor=none;fillColor=none;align=left;verticalAlign=top;spacingLeft=4;spacingRight=4;overflow=hidden;rotatable=0;points=[[0,0.5],[1,0.5]];portConstraint=eastwest;" parent="BbQsAO82EBdSkwpl4tn9-22" vertex="1"><mxGeometry y="26" width="160" height="84" as="geometry"/></mxCell><mxCell id="BbQsAO82EBdSkwpl4tn9-26" value="Use" style="endArrow=open;endSize=12;dashed=1;html=1;" parent="1" source="BbQsAO82EBdSkwpl4tn9-2" target="BbQsAO82EBdSkwpl4tn9-22" edge="1"><mxGeometry width="160" relative="1" as="geometry"><mxPoint x="420" y="480" as="sourcePoint"/><mxPoint x="580" y="480" as="targetPoint"/></mxGeometry></mxCell><mxCell id="hQFE-qK8NFgcYZqWs9eb-1" value="User" style="swimlane;fontStyle=1;align=center;verticalAlign=top;childLayout=stackLayout;horizontal=1;startSize=26;horizontalStack=0;resizeParent=1;resizeParentMax=0;resizeLast=0;collapsible=1;marginBottom=0;" parent="1" vertex="1"><mxGeometry x="525" y="620" width="190" height="150" as="geometry"/></mxCell><mxCell id="hQFE-qK8NFgcYZqWs9eb-2" value="+ id: Integer&#10;+ email: String&#10;+ password: String&#10;+ firstName: String&#10;+ lastName: String&#10;+ affiliation: String&#10;+ isSiteAdministrator: Boolean&#10;+ webpageLink: String?" style="text;strokeColor=none;fillColor=none;align=left;verticalAlign=top;spacingLeft=4;spacingRight=4;overflow=hidden;rotatable=0;points=[[0,0.5],[1,0.5]];portConstraint=eastwest;" parent="hQFE-qK8NFgcYZqWs9eb-1" vertex="1"><mxGeometry y="26" width="190" height="124" as="geometry"/></mxCell><mxCell id="hQFE-qK8NFgcYZqWs9eb-6" value="" style="endArrow=none;html=1;" parent="1" source="hQFE-qK8NFgcYZqWs9eb-1" target="BbQsAO82EBdSkwpl4tn9-2" edge="1"><mxGeometry width="50" height="50" relative="1" as="geometry"><mxPoint x="500" y="590" as="sourcePoint"/><mxPoint x="550" y="540" as="targetPoint"/></mxGeometry></mxCell><mxCell id="hQFE-qK8NFgcYZqWs9eb-7" value="1..1" style="text;html=1;align=center;verticalAlign=middle;resizable=0;points=[];autosize=1;" parent="1" vertex="1"><mxGeometry x="620" y="600" width="40" height="20" as="geometry"/></mxCell><mxCell id="hQFE-qK8NFgcYZqWs9eb-8" value="1..*" style="text;html=1;align=center;verticalAlign=middle;resizable=0;points=[];autosize=1;" parent="1" vertex="1"><mxGeometry x="615" y="510" width="30" height="20" as="geometry"/></mxCell></root></mxGraphModel></diagram></mxfile>